<mxfile host="app.diagrams.net" modified="2023-08-22T18:07:36.505Z" agent="Mozilla/5.0 (Macintosh; Intel Mac OS X 10_15_7) AppleWebKit/537.36 (KHTML, like Gecko) Chrome/116.0.0.0 Safari/537.36" version="21.3.5" etag="DE9faJ5GNAJFDU123aXH" type="github">
  <diagram name="第 1 页" id="4jZB3Sp3TL11JYAhvMrl">
    <mxGraphModel>
      <root>
        <mxCell id="0" />
        <mxCell id="1" parent="0" />
      </root>
    </mxGraphModel>
  </diagram>
</mxfile>
